HIERARCHY
ROOT SpineBase
{
  OFFSET 0.000000 0.000000 0.000000
  CHANNELS 6 Xposition Yposition Zposition Zrotation Xrotation Yrotation
  JOINT SpineMid
  {
    OFFSET 0.000000 33.320093 0.000000
    CHANNELS 3 Zrotation Xrotation Yrotation
    JOINT SpineShoulder
    {
      OFFSET 0.384709 24.630738 -0.741911
      CHANNELS 3 Zrotation Xrotation Yrotation
      JOINT Neck
      {
        OFFSET 0.245629 8.123920 -0.568838
        CHANNELS 3 Zrotation Xrotation Yrotation
        JOINT Head
        {
          OFFSET 2.288082 11.067544 5.839093
          CHANNELS 3 Zrotation Xrotation Yrotation
          End Site
          {
            OFFSET 0 0 0
          }
        }
      }
      JOINT ShoulderLeft
      {
        OFFSET -1.846046 -5.020255 -15.725795
        CHANNELS 3 Zrotation Xrotation Yrotation
        JOINT ElbowLeft
        {
          OFFSET 3.070128 -25.451066 -4.840829
          CHANNELS 3 Zrotation Xrotation Yrotation
          JOINT WristLeft
          {
            OFFSET 5.183008 -19.051710 3.396938
            CHANNELS 3 Zrotation Xrotation Yrotation
            JOINT HandLeft
            {
              OFFSET -0.005470 -6.022002 3.813318
              CHANNELS 3 Zrotation Xrotation Yrotation
              JOINT HandTipLeft
              {
                OFFSET 4.447566 -7.407071 2.166402
                CHANNELS 3 Zrotation Xrotation Yrotation
                End Site
                {
                  OFFSET 0 0 0
                }
              }
              JOINT ThumbLeft
              {
                OFFSET 3.232157 4.697003 4.173898
                CHANNELS 3 Zrotation Xrotation Yrotation
                End Site
                {
                  OFFSET 0 0 0
                }
              }
            }
          }
        }
      }
      JOINT ShoulderRight
      {
        OFFSET 8.611277 -9.466382 9.391835
        CHANNELS 3 Zrotation Xrotation Yrotation
        JOINT ElbowRight
        {
          OFFSET 4.165958 -24.629351 -12.947239
          CHANNELS 3 Zrotation Xrotation Yrotation
          JOINT WristRight
          {
            OFFSET -2.456864 -17.045604 19.629900
            CHANNELS 3 Zrotation Xrotation Yrotation
            JOINT HandRight
            {
              OFFSET -0.498856 -8.280553 8.960912
              CHANNELS 3 Zrotation Xrotation Yrotation
              JOINT HandTipRight
              {
                OFFSET 0.294320 -3.604046 0.443457
                CHANNELS 3 Zrotation Xrotation Yrotation
                End Site
                {
                  OFFSET 0 0 0
                }
              }
              JOINT ThumbRight
              {
                OFFSET 0.218332 6.257789 -1.526667
                CHANNELS 3 Zrotation Xrotation Yrotation
                End Site
                {
                  OFFSET 0 0 0
                }
              }
            }
          }
        }
      }
    }
  }
  JOINT HipLeft
  {
    OFFSET -1.839266 2.432876 -8.835987
    CHANNELS 3 Zrotation Xrotation Yrotation
    JOINT KneeLeft
    {
      OFFSET -3.120544 -32.414567 -1.384170
      CHANNELS 3 Zrotation Xrotation Yrotation
      JOINT AnkleLeft
      {
        OFFSET -8.219836 -36.380097 4.204558
        CHANNELS 3 Zrotation Xrotation Yrotation
        JOINT FootLeft
        {
          OFFSET 10.495816 -3.724495 -6.839158
          CHANNELS 3 Zrotation Xrotation Yrotation
          End Site
          {
            OFFSET 0 0 0
          }
        }
      }
    }
  }
  JOINT HipRight
  {
    OFFSET 4.143295 -0.786952 1.867702
    CHANNELS 3 Zrotation Xrotation Yrotation
    JOINT KneeRight
    {
      OFFSET -1.145897 -26.704630 15.824165
      CHANNELS 3 Zrotation Xrotation Yrotation
      JOINT AnkleRight
      {
        OFFSET -14.601487 -38.446555 2.835762
        CHANNELS 3 Zrotation Xrotation Yrotation
        JOINT FootRight
        {
          OFFSET 2.555465 -7.010505 0.290262
          CHANNELS 3 Zrotation Xrotation Yrotation
          End Site
          {
            OFFSET 0 0 0
          }
        }
      }
    }
  }
}
MOTION
Frames: 9
Frame Time: 0.033333
-97.334370 77.571386 313.863013 -0.000000 0.000000 -60.798076 -0.000000 0.000000 60.798076 -0.000000 0.000000 0.000000 -0.000000 0.000000 0.000000 0.000000 0.000000 0.000000 -0.000000 0.000000 0.000000 -0.000000 0.000000 0.000000 -0.000000 0.000000 0.000000 -0.000000 0.000000 0.000000 0.000000 0.000000 0.000000 0.000000 0.000000 0.000000 -0.000000 0.000000 0.000000 -0.000000 0.000000 0.000000 -0.000000 0.000000 0.000000 -0.000000 0.000000 0.000000 0.000000 0.000000 0.000000 0.000000 0.000000 0.000000 -0.000000 0.000000 60.798076 -0.000000 0.000000 0.000000 -0.000000 0.000000 0.000000 0.000000 0.000000 0.000000 -0.000000 0.000000 60.798076 -0.000000 0.000000 0.000000 -0.000000 0.000000 0.000000 0.000000 0.000000 0.000000
-97.260491 77.565372 313.806929 -0.115655 0.060489 -60.469363 0.109636 0.070816 60.469356 -0.000000 0.000000 0.000000 -0.000000 0.000000 0.000000 0.000000 0.000000 0.000000 -0.000000 0.000000 0.000000 -0.000000 0.000000 0.000000 -0.000000 0.000000 0.000000 -0.000000 0.000000 0.000000 0.000000 0.000000 0.000000 0.000000 0.000000 0.000000 -0.000000 0.000000 0.000000 -0.000000 0.000000 0.000000 -0.157096 1.124666 -0.238735 1.111218 2.144611 0.619700 0.000000 0.000000 0.000000 0.000000 0.000000 0.000000 0.109636 0.070816 60.469356 -0.000000 0.000000 0.000000 -0.000000 0.000000 0.000000 0.000000 0.000000 0.000000 0.109636 0.070816 60.469356 -0.000000 0.000000 0.000000 2.427053 5.276004 1.901995 0.000000 0.000000 0.000000
-97.194972 77.565312 313.762870 -0.215627 0.110629 -60.155413 0.203264 0.131976 60.155387 -0.000000 0.000000 0.000000 -0.000000 0.000000 0.000000 0.000000 0.000000 0.000000 -0.000000 0.000000 0.000000 -0.000000 0.000000 0.000000 -0.613037 0.474908 -0.387101 0.241375 0.655639 0.966012 0.000000 0.000000 0.000000 0.000000 0.000000 0.000000 -0.000000 0.000000 0.000000 -0.000000 0.000000 0.000000 -0.356480 1.580309 -0.483183 2.120713 3.269563 1.085156 0.000000 0.000000 0.000000 0.000000 0.000000 0.000000 0.203264 0.131976 60.155387 -0.000000 0.000000 0.000000 -0.000000 0.000000 0.000000 0.000000 0.000000 0.000000 0.203264 0.131976 60.155387 -0.000000 0.000000 0.000000 3.806545 8.865616 3.072518 0.000000 0.000000 0.000000
-97.137813 77.571208 313.730835 -0.299927 0.150425 -59.856778 0.280696 0.183831 59.856721 -0.000000 0.000000 0.000000 -0.151018 -0.869468 0.259252 0.000000 0.000000 0.000000 -0.000000 0.000000 0.000000 -0.000000 0.000000 0.000000 -0.871309 0.607009 -0.549521 0.349870 0.908872 1.323450 0.000000 0.000000 0.000000 0.000000 0.000000 0.000000 -0.000000 0.000000 0.000000 -0.000000 0.000000 0.000000 -0.606580 1.254419 -0.733808 3.200229 4.110696 1.446438 0.000000 0.000000 0.000000 0.000000 0.000000 0.000000 0.280696 0.183831 59.856721 -0.000000 0.000000 0.000000 -0.000000 0.000000 0.000000 0.000000 0.000000 0.000000 0.280696 0.183831 59.856721 -0.000000 0.000000 0.000000 4.278519 10.796558 3.682954 0.000000 0.000000 0.000000
-97.089014 77.583057 313.710825 -0.368562 0.179876 -59.573967 0.341753 0.226711 59.573869 -0.000000 0.000000 0.000000 -0.168885 -1.098282 0.316048 0.000000 0.000000 0.000000 -0.000000 0.000000 0.000000 -0.000000 0.000000 0.000000 -1.105132 0.676274 -0.696506 0.462128 1.101122 1.598716 0.000000 0.000000 0.000000 0.000000 0.000000 0.000000 -0.000000 0.000000 0.000000 -0.000000 0.000000 0.000000 -0.915913 0.038670 -0.993069 4.483630 4.956029 1.693073 0.000000 0.000000 0.000000 0.000000 0.000000 0.000000 0.341753 0.226711 59.573869 -0.000000 0.000000 0.000000 -0.000000 0.000000 0.000000 0.000000 0.000000 0.000000 -0.505724 0.027323 59.191363 0.605336 -0.625741 0.387691 3.920819 11.130853 3.816774 0.000000 0.000000 0.000000
-97.048575 77.600862 313.702839 -0.421528 0.198978 -59.307446 0.386266 0.260916 59.307299 -0.000000 0.000000 0.000000 -0.170931 -1.297191 0.358466 0.000000 0.000000 0.000000 -0.000000 0.000000 0.000000 -0.000000 0.000000 0.000000 -1.318896 0.685643 -0.831059 0.584757 1.227877 1.792936 0.000000 0.000000 0.000000 0.000000 0.000000 0.000000 -0.000000 0.000000 0.000000 -0.000000 0.000000 0.000000 -1.292229 -2.160570 -1.265908 6.139800 5.797107 1.773749 0.000000 0.000000 0.000000 0.000000 0.000000 0.000000 0.386266 0.260916 59.307299 -0.000000 0.000000 0.000000 -0.000000 0.000000 0.000000 0.000000 0.000000 0.000000 -0.531966 0.005649 58.871963 0.693230 -0.654032 0.441428 2.749162 9.895390 3.472867 0.000000 0.000000 0.000000
-97.015823 77.636171 313.709051 -0.447178 0.202699 -58.962854 0.404242 0.278647 58.962662 -0.000000 0.000000 0.000000 -0.115210 -1.473631 0.366382 0.000000 0.000000 0.000000 -0.000000 0.000000 0.000000 -0.000000 0.000000 0.000000 -1.429104 0.963037 -0.898617 0.487504 1.209805 1.966004 0.000000 0.000000 0.000000 0.000000 0.000000 0.000000 -0.000000 0.000000 0.000000 0.197121 1.980711 -0.063192 -1.886103 -8.241234 -1.458244 7.823727 7.222464 1.373298 0.000000 0.000000 0.000000 0.000000 0.000000 0.000000 0.404242 0.278647 58.962662 -0.000000 0.000000 0.000000 -0.000000 0.000000 0.000000 0.000000 0.000000 0.000000 -0.633194 -0.009021 58.468553 0.787790 -0.733783 0.501595 -1.909143 3.918750 1.425891 0.000000 0.000000 0.000000
-96.992294 77.666274 313.738467 -0.460855 0.188431 -58.737632 0.400236 0.296152 58.737355 -0.000000 0.000000 0.000000 -0.059369 -1.603239 0.364615 0.000000 0.000000 0.000000 -0.000000 0.000000 0.000000 -0.000000 0.000000 0.000000 -1.710332 0.508362 -1.078974 1.271961 1.541660 2.202720 0.000000 0.000000 0.000000 0.000000 0.000000 0.000000 -0.000000 0.000000 0.000000 0.264448 3.600179 -0.231299 -2.680122 -15.403402 -1.892259 11.471695 1.821622 0.656669 0.000000 0.000000 0.000000 0.000000 0.000000 0.000000 0.400236 0.296152 58.737355 -0.000000 0.000000 0.000000 -0.000000 0.000000 0.000000 0.000000 0.000000 0.000000 -0.542347 -0.082539 58.229846 0.818265 -0.601939 0.513565 -7.749306 -2.430239 -1.405358 0.000000 0.000000 0.000000
-96.976315 77.700012 313.777823 -0.465815 0.168613 -58.630021 0.386452 0.309950 58.629661 -0.000000 0.000000 0.000000 -0.060373 -1.679240 0.381058 0.000000 0.000000 0.000000 -0.000000 0.000000 0.000000 -0.834143 -0.139429 -0.188009 -0.907651 0.764299 -0.906024 1.118320 0.882482 1.838766 0.000000 0.000000 0.000000 0.000000 0.000000 0.000000 -0.000000 0.000000 0.000000 0.299522 5.282065 -0.455096 -3.238837 -22.561566 -2.131497 19.913220 -16.831356 0.660206 0.000000 0.000000 0.000000 0.000000 0.000000 0.000000 0.386452 0.309950 58.629661 -0.000000 0.000000 0.000000 -0.000000 0.000000 0.000000 0.000000 0.000000 0.000000 -0.360833 -0.159105 58.145067 0.792815 -0.387167 0.488257 -14.880459 -8.754601 -5.189752 0.000000 0.000000 0.000000
